<?xml version="1.0" encoding="UTF-8"?>
<svg id="Vrstva_1" xmlns="http://www.w3.org/2000/svg" version="1.1" viewBox="0 0 200 200">
  <!-- Generator: Adobe Illustrator 30.1.0, SVG Export Plug-In . SVG Version: 2.1.1 Build 136)  -->
  <path d="M112.4,46.4c-10.1,11.5-19.6,25.2-31.9,34.3l5.2-10.1-.9-4c1.3-3.4,1.8-6.7.9-10.3-2.5,3.1-5.2,5.9-7.2,9.2s-.8,5.9-3,7l-3.3.2-6.3,7.4,9,10.4,3.8-1.4c-6.2,17.7-11.8,8.2-17.9,19.8-2.3,4.4-5.6,8.8-9,12-.2-.9-.8-2.1-1.3-1.7-7,5.9-15.5,11-24.6,13.2,7.7-6.8,14-14.7,17.6-24.4l-1.5-5.4c2-2.8,4.6-5.8,7-8.2l5.1,5.2,2.8-7.7-6-5.9c-5.1-5,2.7-6.2-.9-16.3-4.2,5.2-8.1,9.2-11.5,14.4l-6.9,10.7c-1.3,0-3.3.2-4.4.4l-11.5,15.6,12.6-8.5c1.6,1.1,2.1,3.4,2.3,5.7l6-2.7c-2.7,10.7-13.6,18.9-23.9,23.1,2.7-5,5.2-8.9,6.8-14.6l-9.9,7.8c-.8-3.2-1.4-6.6-1.5-9.6l15.3-17.6c.9-1.1,3.5-2.3,4.3-3.2l23.2-28,12.4,13.9c2.9-2.9,5.9-6.4,8.7-9.8l14.1-17.1,10,9.9,16.1-19.2c.5-.6,2.5.1,2.9.7l26.3,34.8,9.8-8.9,40.8,45.4c-.2,3-.6,5.6-1.5,8.9l-12.2-11c1.6,6.4,4.9,11.3,8.7,17-15.5-5.5-20.4-16-30.6-26.3,3.4,17.6,5.7,17.9,17.5,31-9.9-2.5-17.9-7.3-25.2-14.1l1.8,5.4-9.5-5.5c3.1,6.5,7.5,11,13,16.1-12.6-1.7-23.2-7.6-33.3-15.3,2.1,5.6,4.8,9.8,8.1,14.7-12.3-5.9-21-17.2-28.6-28.8-8.4,11.8-17.7,23.1-30.2,28.9,3.5-4.5,6.2-8.8,7.9-14-10.2,6.5-20,12.4-32.1,14,8.6-6.7,15.7-13.9,22.4-22.3,2.1-2.6,6.6-3.6,9.5-5.1l.6,4.4c3.2-1.8,6.6-3.8,9.2-6.6l13.4-14.2,12.8,12.7c2.5,2.4,6.3,4.1,9.1,6.2,4,3,7.3,5.6,11.6,8.3l-8.4-16.9c.7-1.9,2.7-3.9,4.8-5.5l13.1,10.4-7.5-11.9h4.8c-1.5-1.5-3-2.6-4.8-3.7l-8.3-5.2-4.8,6.2-8.1-9.6,4.7-7.7-7.7-8.7,1.7-8.3c.6-2.7-.6-6.2-1.5-9.9ZM172.3,100.8c-3.5-5.7-7.8-11.2-11.9-15.8-1.6,0-4,.6-5,.2s-1.8-2.3-2.1-3.2l-2.8-9-6.7,6.7,9.4,12.5c.5.7,2.5.5,3-.1,3.2-4.4,10.8,7,16.1,8.8Z"/>
  <path d="M100,190l-9.4-9.5,4.5-4.9-22.3-23.4,27.2-28.3,27.2,28.4-22.5,23.5,4.3,4.9-8.9,9.2ZM91.8,157.8c.6-2.5,6.2-8.1,8.3-9.3,5.3,4.9,2.5,6.2,8.5,9.1l-4.2,4.5c-1.6,1.7-3.2,3.9-4.5,6l-7.8-9c-1,.6-2.3,1.6-2.9,2.2l10.8,11,18.7-19.7-18.9-19.8-18.8,19.3c0,.2.6,1.2.8,1,2.8-3.9,3.2-1.2,8.3-6.6l10-10.6c1.1,2.4,2.2,4.6,3.7,6.2l9.8,10.6-5.1,4.6-.8-5.1c-3-2.5-5.7-5.7-8-9l-8.2,6.8c-1.2,1-4,1.7-5.6,2.4l5.7,5.4Z"/>
  <path d="M88,174.8l-11,11.9-8.6-7.9,4.2-4.2,3.9,4,3.3-3.8-9.1-9.4c-1-1.1-3.5-2-5.2-2.5l-13.7,11.6-17.5-17.9,15.9-18.1,14.4,11c-1.9,2-5.5,3.3-7.5,1.7l-6.1-4.9-8.8,10.1,9.9,10.3,7.4-6-7.4-1.3c-1.1-.2-1.7-2.9-.9-4.2,23.3,2,21,4.3,36.7,19.6Z"/>
  <path d="M111.8,174.9c14.8-14.8,13.9-18.2,36.8-19.6.7,1.1.3,3.9-.9,4.1l-7.4,1.2,7.2,6.1,9.9-10.4-8.7-10.1-6.7,5.1c-1.9,1.4-5.2-.3-6.1-2.4l13.8-10.3,15.8,17.8-17.5,18.1-13.3-11.2c-1.1,0-3.9.7-4.8,1.6l-10.1,9.9,3.5,4,3.9-4.4,3.9,4.5-8.4,7.6-10.8-11.7Z"/>
  <polygon points="96.6 41.2 94.2 29.6 90.5 31.7 92.1 27.6 83.7 25.1 92.2 23 90.2 18.8 94.3 20.8 96.6 10 98.9 20.8 102.5 19.3 100.9 23 109.4 25.1 100.9 27.5 103.2 32 99.1 29.8 96.6 41.2"/>
  <path d="M97.3,81.7l-9.8,8,8.8-15.3c3.8-1,6.5-2.9,10.1-5.9l-4.2,9.6c-.7,1.6-3.2,2.2-4.9,3.5Z"/>
</svg>